# xmcd
#
# Track frame offsets:
#	150
#	11323
#	22812
#	35443
#	47658
#
# Disc length: 856 seconds
#
# Revision: 1
# Processed by: cddbd v1.5.1PL2 Copyright (c) Steve Scherf et al.
# Submitted via: audiograbber 1.83.01
#
DISCID=2a035605
DTITLE=Miss Leslie and Her Juke-jointers - Turn around (The preview)
DYEAR=1900
DGENRE=Country
TTITLE0=Turn around
TTITLE1=Talk to me lonesome heart
TTITLE2=Midnight angel
TTITLE3=If this is love
TTITLE4=Bobo's boogie
EXTD=
EXTT0=
EXTT1=
EXTT2=
EXTT3=
EXTT4=
PLAYORDER=
